 http://img546.imageshack.us/img546/9283/transformers3darkofthemre.jpg

Country.......: USA
Genre.........: Action, Sci-Fi, Adventure
Date release..: 23.06.2011 [World]
Director......: Michael Bay
Writers.......: Ehren Kruger
Duration......: 154 min.
More..........: http://www.imdb.com/title/tt1399103
Trailer.......: http://www.imdb.com/video/imdb/vi543989017
Trailer.......:

Pilot :
The Autobots learn of a Cybertronian spacecraft hidden on the Moon, and race against the Decepticons to reach it and to learn its secrets.

Cats :
Shia LaBeouf   	 ...  	Sam Witwicky
Josh Duhamel 	... 	Lennox
John Turturro 	... 	Simmons
Tyrese Gibson 	... 	Epps
Rosie Huntington Whiteley 	... 	Carly Spencer
Patrick Dempsey 	... 	Dylan
Rich Hutchman 	... 	Engineer
Frances McDormand 	... 	Mearing
Kevin Dunn 	... 	Ron Witwicky
John Malkovich 	... 	Bruce Brazos
Julie White 	... 	Judy Witwicky
Alan Tudyk 	... 	Dutch
Ken Jeong 	... 	Jerry Wang
Glenn Morshower 	... 	General Morshower
Lester Speight 	... 	Eddie 

Data Technical :
!!! SAMPLE !!!
Audio.....: English
Subtitles.: English .srt, Polish .txt
Format                           : AVI
Format/Info                      : Audio Video Interleave
File size                        : 1.47 GiB
Duration                         : 2h 34mn
Overall bit rate                 : 1 362 Kbps
Video
ID                               : 0
Format                           : MPEG-4 Visual
Format settings, BVOP            : Yes
Format settings, QPel            : No
Format settings, GMC             : No warppoints
Format settings, Matrix          : Default (H.263)
Codec ID                         : DX50
Codec ID/Hint                    : DivX 5
Duration                         : 2h 34mn
Bit rate                         : 1 223 Kbps
Width                            : 640 pixels
Height                           : 480 pixels
Display aspect ratio             : 4:3
Frame rate                       : 29.970 fps
Color space                      : YUV
Chroma subsampling               : 4:2:0
Bit depth                        : 8 bits
Scan type                        : Progressive
Bits/(Pixel*Frame)               : 0.133
Stream size                      : 1.32 GiB (90%)
Writing library                  : DivX 2151n
Audio
ID                               : 1
Format                           : MPEG Audio
Format version                   : Version 1
Format profile                   : Layer 3
Codec ID                         : 55
Codec ID/Hint                    : MP3
Duration                         : 2h 34mn
Bit rate mode                    : Constant
Bit rate                         : 128 Kbps
Channel(s)                       : 2 channels
Sampling rate                    : 48.0 KHz
Stream size                      : 141 MiB (9%)
Alignment                        : Aligned on interleaves
Interleave, duration             : 33 ms (1.00 video frame)

Screen : 
http://img835.imageshack.us/img835/4295/transformers3darkofthemg.jpg 
http://img38.imageshack.us/img38/904/transformers3darkofthemz.jpg 
http://img89.imageshack.us/img89/9605/transformers3darkofthemx.jpg 
http://img832.imageshack.us/img832/452/transformers3darkofthemo.jpg 
http://img217.imageshack.us/img217/8241/transformers3darkofthemk.jpg